Exact Audio Copy V0.99 prebeta 3 from 28. July 2007

EAC extraction logfile from 30. July 2009, 23:45

Various / Moments Vol. 2 Mixed By Anthony Pappa Disc 2

Used drive  : TSSTcorpCD/DVDW TS-H552L   Adapter: 1  ID: 0

Read mode               : Secure
Utilize accurate stream : Yes
Defeat audio cache      : Yes
Make use of C2 pointers : No

Read offset correction                      : 6
Overread into Lead-In and Lead-Out          : No
Fill up missing offset samples with silence : Yes
Delete leading and trailing silent blocks   : No
Null samples used in CRC calculations       : Yes
Used interface                              : Native Win32 interface for Win NT & 2000

Used output format              : User Defined Encoder
Selected bitrate                : 1024 kBit/s
Quality                         : High
Add ID3 tag                     : Yes
Command line compressor         : C:Program FilesExact Audio CopyFLACFLAC.EXE
Additional command line options : -V -8 -T "artist=%a" -T "title=%t" -T "album=%g" -T "date=%y" -T "tracknumber=%n" -T "genre=%m" %s


TOC of the extracted CD

     Track |   Start  |  Length  | Start sector | End sector 
    ---------------------------------------------------------
        1  |  0:00.00 |  7:02.05 |         0    |    31654   
        2  |  7:02.05 |  3:38.41 |     31655    |    48045   
        3  | 10:40.46 |  3:38.40 |     48046    |    64435   
        4  | 14:19.11 |  6:01.53 |     64436    |    91563   
        5  | 20:20.64 |  6:34.66 |     91564    |   121179   
        6  | 26:55.55 |  7:21.03 |    121180    |   154257   
        7  | 34:16.58 |  5:40.35 |    154258    |   179792   
        8  | 39:57.18 |  4:52.15 |    179793    |   201707   
        9  | 44:49.33 |  5:07.47 |    201708    |   224779   
       10  | 49:57.05 |  6:08.27 |    224780    |   252406   
       11  | 56:05.32 |  4:35.65 |    252407    |   273096   
       12  | 60:41.22 |  6:36.58 |    273097    |   302854   
       13  | 67:18.05 |  5:51.37 |    302855    |   329216   


Range status and errors

Selected range

     Filename E: 1-va_-_moments_vol_2_mixed_by_anthony_pappa-cd2-gstar.wav

     Peak level 98.8 %
     Range quality 99.9 %
     Test CRC 381268AE
     Copy CRC 381268AE
     Copy OK

No errors occurred

 
AccurateRip summary
 
Track  1  not present in database
Track  2  not present in database
Track  3  not present in database
Track  4  not present in database
Track  5  not present in database
Track  6  not present in database
Track  7  not present in database
Track  8  not present in database
Track  9  not present in database
Track 10  not present in database
Track 11  not present in database
Track 12  not present in database
Track 13  not present in database
 
None of the tracks are present in the AccurateRip database

End of status report
